<svg width="354" height="405" viewBox="0 0 354 405" fill="none" xmlns="http://www.w3.org/2000/svg">
<g filter="url(#filter0_d_102_132)">
<rect x="71.072" width="288.225" height="349.739" rx="20" transform="rotate(11.5577 71.072 0)" fill="#FFFDE4"/>
</g>
<path d="M91.9221 51.2773C94.8545 50.9515 96.2125 46.7463 98.8929 46.7463C100.817 46.7463 99.6645 57.3026 99.4157 58.4224C98.3378 63.2728 97.7854 67.5772 95.059 71.6669" stroke="black" stroke-width="3" stroke-linecap="round"/>
<path d="M105.827 71.8745C105.597 70.0316 103.062 68.9306 103.062 66.8045C103.062 63.6922 103.654 61.0172 103.984 58.0473C104.429 54.0421 111.483 47.6225 115.25 51.3898C118.122 54.2614 119.261 63.4594 116.172 66.5485C114.625 68.0957 108.555 76.4071 105.827 70.9526" stroke="black" stroke-width="3" stroke-linecap="round"/>
<path d="M122.42 76.4835C116.629 75.7596 120.951 65.1846 122.215 62.6564C123.05 60.9859 124.546 57.6262 126.568 57.1768C128.009 56.8566 132.891 56.6702 133.43 58.5595C134.582 62.5897 135.687 69.3468 133.482 73.206C131.308 77.0095 125.276 76.4835 121.498 76.4835" stroke="black" stroke-width="3" stroke-linecap="round"/>
<path d="M185.103 79.2489C187.711 78.9591 190.096 77.7468 192.938 78.3783C195.455 78.9377 197.269 80.1707 199.852 80.1707" stroke="black" stroke-width="3" stroke-linecap="round"/>
<path d="M212.757 76.4835C216.182 76.9117 218.288 88.5181 218.288 91.2324C218.288 97.3346 222.576 85.5436 222.897 83.858C223.916 78.5075 225.772 92.9864 226.584 94.4075C228.57 97.8825 241.174 80.9111 242.306 87.1355C243.126 91.6468 248.839 93.8836 252.343 95.739C255.92 97.6326 259.771 100.245 263.815 100.86C268.047 101.504 276.099 99.9607 279.639 102.857C285.421 107.588 292.818 109.753 300.072 111.307C302.7 111.87 315.404 114.546 316.921 111.512" stroke="black" stroke-width="3" stroke-linecap="round"/>
<path d="M94.7658 128.105C90.1687 127.645 85.6647 126.522 80.9899 126.21C79.978 126.142 73.1672 124.891 73.257 124.776C76.3276 120.828 81.2597 118.261 85.0868 115.199C85.4882 114.878 87.133 112.971 86.6744 113.561C84.8671 115.884 85.1655 121.849 84.4211 124.827C83.9348 126.772 81.3189 136.591 82.7823 137.323" stroke="black" stroke-width="3" stroke-linecap="round"/>
<path d="M100.297 135.479C97.5026 137.963 99.2968 123.983 101.423 121.857C105.613 117.667 110.884 122.458 112.741 125.8C115.597 130.941 109.781 136.165 106.34 139.115C101.235 143.491 99.3749 137.758 99.3749 133.636" stroke="black" stroke-width="3" stroke-linecap="round"/>
<path d="M137.169 134.557C141.231 134.049 143.862 135.867 148.23 137.323" stroke="black" stroke-width="3" stroke-linecap="round"/>
<path d="M162.058 153.915C164.534 150.51 164.232 142.701 165.54 138.449C166.455 135.475 166.764 132.722 168.305 129.948C173.397 120.783 176.807 132.422 176.807 137.323" stroke="black" stroke-width="3" stroke-linecap="round"/>
<path d="M162.058 139.166C165.477 138.786 168.548 139.166 172.197 139.166" stroke="black" stroke-width="3" stroke-linecap="round"/>
<path d="M179.982 143.417C178.289 144.802 174.068 154.38 177.728 154.837C185.345 154.837 189.211 151.774 188.79 143.775C188.534 138.922 181.995 141.769 179.982 143.417Z" stroke="black" stroke-width="3" stroke-linecap="round"/>
<path d="M196.164 161.29C185.131 160.064 193.074 142.434 200.261 146.541C205.562 149.57 203.189 161.29 197.086 161.29" stroke="black" stroke-width="3" stroke-linecap="round"/>
<path d="M219.21 166.821C219.21 159.737 221.053 152.749 221.053 145.67C221.053 141.903 222.897 138.222 222.897 134.557" stroke="black" stroke-width="3" stroke-linecap="round"/>
<path d="M220.131 159.446C217.647 159.136 216.601 156.509 213.679 156.681C211.64 156.801 209.152 159.352 209.07 161.495C208.905 165.772 209.147 167.742 213.679 167.742C216.861 167.742 221.796 166.436 222.897 163.133" stroke="black" stroke-width="3" stroke-linecap="round"/>
<path d="M109.515 170.508C114.368 171.047 120.199 175.427 124.776 177.063C134.218 180.438 144.157 182.934 153.864 185.462C167.489 189.009 181.318 189.106 194.935 192.17C196.957 192.625 205.068 193.198 200.569 195.038C186.335 200.861 169.47 197.41 154.478 198.367C146.696 198.864 137.984 199.652 130.511 202.054C126.266 203.419 119.845 209.498 120.679 214.294C122.141 222.702 136.015 226.952 142.034 230.323C150.421 235.019 151.216 235.71 146.797 243.638C142.225 251.839 140.373 262.452 132.509 268.219C128.434 271.207 125.185 273.191 125.185 278.308C125.185 282.103 128.789 286.783 129.999 290.548C131.189 294.25 131.957 294.962 130.716 299.458C129.437 304.096 125.327 307.587 124.264 312.108C122.854 318.097 119.655 336.133 119.655 329.98" stroke="black" stroke-width="2" stroke-linecap="round"/>
<path d="M252.225 189.497C195.453 177.772 133.753 175.629 79.5552 153.731C63.9149 147.412 62.1828 138.981 68.2293 123.529C79.441 94.8768 116.461 96.7381 141.549 95.9097C167.043 95.0679 196.962 90.1369 217.254 108.428C232.099 121.809 244.281 138.971 242.886 159.891C241.684 177.924 230.538 178.569 213.379 178.569C200.88 178.569 182.927 179.32 172.646 170.621C169.768 168.186 164.373 165.798 162.81 162.673" stroke="#FF0000" stroke-width="2" stroke-linecap="round"/>
<defs>
<filter id="filter0_d_102_132" x="0.597656" y="3.5976" width="353.258" height="401.2" filterUnits="userSpaceOnUse" color-interpolation-filters="sRGB">
<feFlood flood-opacity="0" result="BackgroundImageFix"/>
<feColorMatrix in="SourceAlpha" type="matrix" values="0 0 0 0 0 0 0 0 0 0 0 0 0 0 0 0 0 0 127 0" result="hardAlpha"/>
<feOffset dy="4"/>
<feGaussianBlur stdDeviation="2"/>
<feComposite in2="hardAlpha" operator="out"/>
<feColorMatrix type="matrix" values="0 0 0 0 0 0 0 0 0 0 0 0 0 0 0 0 0 0 0.25 0"/>
<feBlend mode="normal" in2="BackgroundImageFix" result="effect1_dropShadow_102_132"/>
<feBlend mode="normal" in="SourceGraphic" in2="effect1_dropShadow_102_132" result="shape"/>
</filter>
</defs>
</svg>
