<svg width="109" height="39" viewBox="0 0 109 39" fill="none" xmlns="http://www.w3.org/2000/svg">
<path d="M1.87145 33V8.27273H19.1129V13.1264H7.84801V18.1974H18.2315V23.0632H7.84801V28.1463H19.1129V33H1.87145ZM28.9048 8.27273L33.4205 16.0845H33.6136L38.1776 8.27273H44.8665L37.4048 20.6364L45.108 33H38.25L33.6136 25.1037H33.4205L28.7841 33H21.9744L29.6413 20.6364L22.1676 8.27273H28.9048Z" fill="#686868"/>
<path d="M46.1009 23.0909V8.09091H49.5384V9.95881H49.6449C49.7869 9.62737 49.9882 9.30777 50.2486 9C50.5137 8.69223 50.8499 8.44129 51.2571 8.24716C51.669 8.0483 52.1615 7.94886 52.7344 7.94886C53.492 7.94886 54.1998 8.14773 54.858 8.54545C55.5208 8.94318 56.0559 9.55634 56.4631 10.3849C56.8703 11.2135 57.0739 12.2694 57.0739 13.5526C57.0739 14.7884 56.8774 15.8229 56.4844 16.6562C56.0961 17.4896 55.5705 18.1146 54.9077 18.5312C54.2495 18.9479 53.518 19.1562 52.7131 19.1562C52.1638 19.1562 51.688 19.0663 51.2855 18.8864C50.883 18.7064 50.5445 18.4697 50.2699 18.1761C50 17.8826 49.7917 17.5677 49.6449 17.2315H49.5739V23.0909H46.1009ZM49.5028 13.5455C49.5028 14.1326 49.581 14.6439 49.7372 15.0795C49.8982 15.5152 50.1278 15.8537 50.4261 16.0952C50.7292 16.3319 51.0914 16.4503 51.5128 16.4503C51.9389 16.4503 52.3011 16.3319 52.5994 16.0952C52.8977 15.8537 53.1226 15.5152 53.2741 15.0795C53.4304 14.6439 53.5085 14.1326 53.5085 13.5455C53.5085 12.9583 53.4304 12.4493 53.2741 12.0185C53.1226 11.5876 52.8977 11.2538 52.5994 11.017C52.3059 10.7803 51.9437 10.6619 51.5128 10.6619C51.0866 10.6619 50.7244 10.7779 50.4261 11.0099C50.1278 11.242 49.8982 11.5734 49.7372 12.0043C49.581 12.4351 49.5028 12.9489 49.5028 13.5455ZM63.9933 19.206C62.8522 19.206 61.8673 18.9811 61.0387 18.5312C60.2148 18.0767 59.5804 17.4304 59.1353 16.5923C58.695 15.7495 58.4748 14.7481 58.4748 13.5881C58.4748 12.4612 58.6973 11.4763 59.1424 10.6335C59.5875 9.78598 60.2148 9.12784 61.0245 8.65909C61.8342 8.18561 62.7882 7.94886 63.8867 7.94886C64.6632 7.94886 65.3735 8.0696 66.0174 8.31108C66.6613 8.55256 67.2177 8.91004 67.6864 9.38352C68.1552 9.85701 68.5198 10.4418 68.7802 11.1378C69.0406 11.8291 69.1708 12.6222 69.1708 13.517V14.3835H59.6893V12.3665H65.9393C65.9345 11.9972 65.8469 11.6681 65.6765 11.3793C65.506 11.0904 65.2717 10.8655 64.9734 10.7045C64.6798 10.5388 64.3413 10.456 63.9577 10.456C63.5695 10.456 63.2215 10.5436 62.9137 10.7188C62.6059 10.8892 62.3621 11.1236 62.1822 11.4219C62.0022 11.7154 61.9076 12.0492 61.8981 12.4233V14.4759C61.8981 14.9209 61.9857 15.3116 62.1609 15.6477C62.3361 15.9792 62.5846 16.2372 62.9066 16.4219C63.2286 16.6065 63.6121 16.6989 64.0572 16.6989C64.3649 16.6989 64.6443 16.6562 64.8952 16.571C65.1462 16.4858 65.3616 16.3603 65.5415 16.1946C65.7215 16.0289 65.8564 15.8253 65.9464 15.5838L69.1353 15.6761C69.0027 16.3911 68.7115 17.0137 68.2617 17.544C67.8166 18.0696 67.2319 18.4792 66.5075 18.7727C65.783 19.0616 64.945 19.206 63.9933 19.206ZM70.9446 19V8.09091H74.3182V10.0795H74.4318C74.6307 9.35985 74.955 8.82481 75.4048 8.47443C75.8546 8.11932 76.3778 7.94176 76.9744 7.94176C77.1354 7.94176 77.3011 7.9536 77.4716 7.97727C77.642 7.99621 77.8007 8.02699 77.9474 8.0696V11.0881C77.7817 11.0312 77.5639 10.9863 77.294 10.9531C77.0289 10.92 76.7921 10.9034 76.5838 10.9034C76.1719 10.9034 75.8002 10.9957 75.4688 11.1804C75.142 11.3603 74.884 11.6136 74.6946 11.9403C74.5099 12.2623 74.4176 12.6411 74.4176 13.0767V19H70.9446ZM86.0281 8.09091V10.6477H79.146V8.09091H86.0281ZM80.5877 5.47727H84.0607V15.5696C84.0607 15.7827 84.0939 15.9555 84.1602 16.0881C84.2312 16.2159 84.333 16.3082 84.4656 16.3651C84.5981 16.4171 84.7567 16.4432 84.9414 16.4432C85.074 16.4432 85.2137 16.4313 85.3604 16.4077C85.512 16.3793 85.6256 16.3556 85.7013 16.3366L86.2269 18.8438C86.0612 18.8911 85.8268 18.9503 85.5238 19.0213C85.2255 19.0923 84.868 19.1373 84.4513 19.1562C83.637 19.1941 82.9386 19.0994 82.3562 18.8722C81.7785 18.6402 81.3358 18.2803 81.0281 17.7926C80.725 17.3049 80.5782 16.6918 80.5877 15.9531V5.47727Z" fill="#1141FF"/>
<path d="M46.1009 38.0909V23.0909H49.5384V24.9588H49.6449C49.7869 24.6274 49.9882 24.3078 50.2486 24C50.5137 23.6922 50.8499 23.4413 51.2571 23.2472C51.669 23.0483 52.1615 22.9489 52.7344 22.9489C53.492 22.9489 54.1998 23.1477 54.858 23.5455C55.5208 23.9432 56.0559 24.5563 56.4631 25.3849C56.8703 26.2135 57.0739 27.2694 57.0739 28.5526C57.0739 29.7884 56.8774 30.8229 56.4844 31.6562C56.0961 32.4896 55.5705 33.1146 54.9077 33.5312C54.2495 33.9479 53.518 34.1562 52.7131 34.1562C52.1638 34.1562 51.688 34.0663 51.2855 33.8864C50.883 33.7064 50.5445 33.4697 50.2699 33.1761C50 32.8826 49.7917 32.5677 49.6449 32.2315H49.5739V38.0909H46.1009ZM49.5028 28.5455C49.5028 29.1326 49.581 29.6439 49.7372 30.0795C49.8982 30.5152 50.1278 30.8537 50.4261 31.0952C50.7292 31.3319 51.0914 31.4503 51.5128 31.4503C51.9389 31.4503 52.3011 31.3319 52.5994 31.0952C52.8977 30.8537 53.1226 30.5152 53.2741 30.0795C53.4304 29.6439 53.5085 29.1326 53.5085 28.5455C53.5085 27.9583 53.4304 27.4493 53.2741 27.0185C53.1226 26.5876 52.8977 26.2538 52.5994 26.017C52.3059 25.7803 51.9437 25.6619 51.5128 25.6619C51.0866 25.6619 50.7244 25.7779 50.4261 26.0099C50.1278 26.242 49.8982 26.5734 49.7372 27.0043C49.581 27.4351 49.5028 27.9489 49.5028 28.5455ZM63.9933 34.206C62.8522 34.206 61.8673 33.9811 61.0387 33.5312C60.2148 33.0767 59.5804 32.4304 59.1353 31.5923C58.695 30.7495 58.4748 29.7481 58.4748 28.5881C58.4748 27.4612 58.6973 26.4763 59.1424 25.6335C59.5875 24.786 60.2148 24.1278 61.0245 23.6591C61.8342 23.1856 62.7882 22.9489 63.8867 22.9489C64.6632 22.9489 65.3735 23.0696 66.0174 23.3111C66.6613 23.5526 67.2177 23.91 67.6864 24.3835C68.1552 24.857 68.5198 25.4418 68.7802 26.1378C69.0406 26.8291 69.1708 27.6222 69.1708 28.517V29.3835H59.6893V27.3665H65.9393C65.9345 26.9972 65.8469 26.6681 65.6765 26.3793C65.506 26.0904 65.2717 25.8655 64.9734 25.7045C64.6798 25.5388 64.3413 25.456 63.9577 25.456C63.5695 25.456 63.2215 25.5436 62.9137 25.7188C62.6059 25.8892 62.3621 26.1236 62.1822 26.4219C62.0022 26.7154 61.9076 27.0492 61.8981 27.4233V29.4759C61.8981 29.9209 61.9857 30.3116 62.1609 30.6477C62.3361 30.9792 62.5846 31.2372 62.9066 31.4219C63.2286 31.6065 63.6121 31.6989 64.0572 31.6989C64.3649 31.6989 64.6443 31.6562 64.8952 31.571C65.1462 31.4858 65.3616 31.3603 65.5415 31.1946C65.7215 31.0289 65.8564 30.8253 65.9464 30.5838L69.1353 30.6761C69.0027 31.3911 68.7115 32.0137 68.2617 32.544C67.8166 33.0696 67.2319 33.4792 66.5075 33.7727C65.783 34.0616 64.945 34.206 63.9933 34.206ZM74.4176 27.7784V34H70.9446V23.0909H74.2472V25.0938H74.3679C74.6094 24.4261 75.0213 23.9029 75.6037 23.5241C76.1861 23.1406 76.8797 22.9489 77.6847 22.9489C78.4517 22.9489 79.117 23.1217 79.6804 23.4673C80.2486 23.8082 80.6889 24.2865 81.0014 24.902C81.3187 25.5128 81.4749 26.2277 81.4702 27.0469V34H77.9972V27.7287C78.0019 27.1226 77.848 26.6491 77.5355 26.3082C77.2277 25.9673 76.7992 25.7969 76.25 25.7969C75.8854 25.7969 75.5634 25.8774 75.2841 26.0384C75.0095 26.1946 74.7964 26.4195 74.6449 26.7131C74.4981 27.0066 74.4223 27.3617 74.4176 27.7784ZM93.1445 26.4219L89.9556 26.5071C89.9225 26.2798 89.8325 26.0786 89.6857 25.9034C89.5389 25.7235 89.3472 25.5838 89.1104 25.4844C88.8784 25.3802 88.6085 25.3281 88.3008 25.3281C87.8983 25.3281 87.555 25.4086 87.271 25.5696C86.9916 25.7306 86.8543 25.9484 86.859 26.223C86.8543 26.4361 86.9395 26.6207 87.1147 26.777C87.2946 26.9332 87.6142 27.0587 88.0735 27.1534L90.1758 27.5511C91.2648 27.7595 92.0745 28.1051 92.6048 28.5881C93.1398 29.071 93.4097 29.7102 93.4144 30.5057C93.4097 31.2538 93.1871 31.9048 92.7468 32.4588C92.3112 33.0128 91.7146 33.4437 90.957 33.7514C90.1995 34.0545 89.333 34.206 88.3576 34.206C86.7998 34.206 85.5711 33.8864 84.6715 33.2472C83.7766 32.6032 83.2653 31.7415 83.1374 30.6619L86.5678 30.5767C86.6436 30.9744 86.8401 31.2775 87.1573 31.4858C87.4746 31.6941 87.8794 31.7983 88.3718 31.7983C88.8169 31.7983 89.1791 31.7154 89.4585 31.5497C89.7378 31.384 89.8799 31.1638 89.8846 30.8892C89.8799 30.643 89.771 30.4465 89.5579 30.2997C89.3448 30.1482 89.011 30.0298 88.5565 29.9446L86.6531 29.5824C85.5593 29.3835 84.7449 29.0166 84.2099 28.4815C83.6748 27.9418 83.4097 27.2552 83.4144 26.4219C83.4097 25.6927 83.6038 25.0701 83.9968 24.554C84.3898 24.0331 84.9485 23.6354 85.6729 23.3608C86.3974 23.0862 87.252 22.9489 88.2369 22.9489C89.7141 22.9489 90.8789 23.259 91.7312 23.8793C92.5835 24.4948 93.0546 25.3423 93.1445 26.4219ZM100.224 34.206C99.0826 34.206 98.0978 33.9811 97.2692 33.5312C96.4453 33.0767 95.8108 32.4304 95.3658 31.5923C94.9254 30.7495 94.7053 29.7481 94.7053 28.5881C94.7053 27.4612 94.9278 26.4763 95.3729 25.6335C95.8179 24.786 96.4453 24.1278 97.255 23.6591C98.0646 23.1856 99.0187 22.9489 100.117 22.9489C100.894 22.9489 101.604 23.0696 102.248 23.3111C102.892 23.5526 103.448 23.91 103.917 24.3835C104.386 24.857 104.75 25.4418 105.011 26.1378C105.271 26.8291 105.401 27.6222 105.401 28.517V29.3835H95.9197V27.3665H102.17C102.165 26.9972 102.077 26.6681 101.907 26.3793C101.737 26.0904 101.502 25.8655 101.204 25.7045C100.91 25.5388 100.572 25.456 100.188 25.456C99.8 25.456 99.4519 25.5436 99.1442 25.7188C98.8364 25.8892 98.5926 26.1236 98.4126 26.4219C98.2327 26.7154 98.138 27.0492 98.1286 27.4233V29.4759C98.1286 29.9209 98.2161 30.3116 98.3913 30.6477C98.5665 30.9792 98.8151 31.2372 99.1371 31.4219C99.459 31.6065 99.8426 31.6989 100.288 31.6989C100.595 31.6989 100.875 31.6562 101.126 31.571C101.377 31.4858 101.592 31.3603 101.772 31.1946C101.952 31.0289 102.087 30.8253 102.177 30.5838L105.366 30.6761C105.233 31.3911 104.942 32.0137 104.492 32.544C104.047 33.0696 103.462 33.4792 102.738 33.7727C102.013 34.0616 101.175 34.206 100.224 34.206Z" fill="#FFA600"/>
</svg>
